<svg xmlns="http://www.w3.org/2000/svg" viewBox="0 0 256 256" focusable="false" color="var(--token-7e31f462-f882-4654-8901-83e4dca2a0fb, rgb(199, 142, 34))" style="user-select: none; width: 100%; height: 100%; display: inline-block; fill: var(--token-7e31f462-f882-4654-8901-83e4dca2a0fb, rgb(199, 142, 34)); color: var(--token-7e31f462-f882-4654-8901-83e4dca2a0fb, rgb(199, 142, 34)); flex-shrink: 0;"><g color="var(--token-7e31f462-f882-4654-8901-83e4dca2a0fb, rgb(199, 142, 34))" weight="fill"><path d="M200,224H150.54A266.56,266.56,0,0,0,174,200.25c27.45-31.57,42-64.85,42-96.25a88,88,0,0,0-176,0c0,31.4,14.51,64.68,42,96.25A266.56,266.56,0,0,0,105.46,224H56a8,8,0,0,0,0,16H200a8,8,0,0,0,0-16ZM128,72a32,32,0,1,1-32,32A32,32,0,0,1,128,72Z"></path></g></svg>